<svg xmlns="http://www.w3.org/2000/svg" viewBox="0 0 24 24" role="img" aria-hidden="true">
  <title>Yelp</title>
  <path
    fill="#d32323"
    d="M20.16 12.594l-4.995 1.433c-.96.276-1.74-.8-1.176-1.63l2.905-4.308a1.072 1.072 0 011.596-.206 9.194 9.194 0 012.364 3.906 1.073 1.073 0 01-.694 1.305zm-2.634 5.2a9.195 9.195 0 01-3.97 1.65 1.073 1.073 0 01-1.351-.92l-.358-5.182c-.067-.96 1.027-1.533 1.81-1.028l4.585 2.9c.75.475.733 1.57-.033 2.02zM9.096 9.315a1.073 1.073 0 01-.206-1.596L12.678 2.7c.275-.96 1.63-.96 1.906 0a9.194 9.194 0 011.65 3.97 1.073 1.073 0 01-.92 1.351zm-5.31 4.482a9.195 9.195 0 01-1.65-3.97 1.073 1.073 0 01.92-1.35l5.182-.358c.96-.067 1.533 1.027 1.028 1.81l-2.9 4.585a1.073 1.073 0 01-2.02-.033zm8.854 6.924a1.073 1.073 0 01-1.596-.206L6.981 16.82c-.96-.276-.534-1.89.39-2.054l5.042-.87c.96-.165 1.756.75 1.424 1.696a9.195 9.195 0 01-1.013 2.209zm6.528-8.309a1.073 1.073 0 01-.693-1.305l1.433-4.995c.276-.96 1.63-.206 1.906.854a9.194 9.194 0 01-1.65 3.97c-.206.31-.59.476-.996.476z"
  />
</svg>
